name C:\Users\tom_v\MusculoskeletalSpecialization\ResultsSprinting\Case_5\motion.mot
datacolumns 32
datarows 17
range 0.35484258 0.43054233
endheader 
time	pelvis_tilt	pelvis_list	pelvis_rotation	pelvis_tx	pelvis_ty	pelvis_tz	hip_flexion_r	hip_adduction_r	hip_rotation_r	knee_angle_r	ankle_angle_r	subtalar_angle_r	mtp_angle_r	hip_flexion_l	hip_adduction_l	hip_rotation_l	knee_angle_l	ankle_angle_l	subtalar_angle_l	mtp_angle_l	lumbar_extension	lumbar_bending	lumbar_rotation	arm_flex_r	arm_add_r	arm_rot_r	elbow_flex_r	arm_flex_l	arm_add_l	arm_rot_l	elbow_flex_l	
          0.35484258	        -10.47340033	         -6.54211538	         27.41920269	          3.12978275	          0.99664141	         -0.03199500	         60.28118067	        -12.72870415	         -7.06721342	        -54.38666860	         16.40021589	        -11.59877600	         -1.10575808	          3.29288970	        -13.58541013	         -4.10714991	        -34.82362804	        -19.68758331	         -9.34060073	          4.57591637	         -5.77143846	          4.03797747	        -23.45559372	        -69.90972941	        -13.53690792	        -13.18061383	          3.98863641	         49.92394297	          4.41450249	         16.85454011	         45.56298769	
          0.35957382	         -9.72209717	         -5.74604872	         28.22848793	          3.17186770	          1.00032094	         -0.03184127	         59.63419944	        -13.55770412	         -7.22172590	        -53.70459310	         17.43389117	        -11.16228141	         -0.34209879	          2.35920666	        -13.80577822	         -4.33496097	        -35.48520035	        -19.96100616	         -8.59607469	          5.51248640	         -6.69928101	          3.92083604	        -24.64140807	        -69.92860869	         -9.62879018	        -12.00045686	          5.39104641	         49.99986227	          2.86861008	         15.16015366	         31.88793783	
          0.36430505	         -8.94250401	         -4.86045559	         28.89275953	          3.21421469	          1.00397555	         -0.03121810	         58.74851483	        -14.18613916	         -7.21413038	        -52.82489052	         18.52672333	        -10.54038288	          0.25677059	          1.38419842	        -13.95088045	         -4.64227905	        -36.08859192	        -20.31731551	         -8.48245461	          5.87173380	         -7.71216825	          3.78690517	        -26.01598279	        -69.95829948	         -6.21295432	         -8.09497742	          6.19680122	         49.60810657	         -0.14379636	         15.31498121	         19.76016416	
          0.36903629	         -8.18011191	         -3.97824445	         29.39274189	          3.25685102	          1.00742570	         -0.03009859	         57.69168625	        -14.55534710	         -7.06984433	        -51.72090463	         19.61050106	         -9.73864673	          0.68841483	          0.46288180	        -14.08235822	         -5.03459701	        -36.69294950	        -19.98421066	         -8.76991405	          6.09929698	         -8.71666990	          3.69319717	        -27.59508108	        -69.97575387	         -3.39181014	         -2.01293313	          6.14962728	         47.70845599	         -4.71084498	         17.43959225	         11.29733609	
          0.37376752	         -7.40735733	         -3.13382370	         29.68367784	          3.29979546	          1.01064936	         -0.02847731	         56.46064370	        -14.60837829	         -6.78559926	        -50.39558486	         20.49378721	         -8.70951012	          1.91318208	         -0.42457968	        -14.23086283	         -5.51899011	        -37.28424037	        -19.66665237	         -9.17311230	          6.44069171	         -9.73078980	          3.67214434	        -29.29033926	        -69.99831655	         -1.02492280	          4.06758833	          5.26266837	         43.72428369	        -10.61391728	         19.30222651	          7.76840609	
          0.37849875	         -6.57676241	         -2.31997121	         29.74500274	          3.34295768	          1.01366767	         -0.02637661	         55.03433886	        -14.34412130	         -6.36325705	        -48.88239666	         21.35439531	         -7.32243672	          3.55399793	         -1.31728262	        -14.38674963	         -6.05865947	        -37.88344742	        -19.42502100	         -9.25468261	          6.61501646	        -10.83529196	          3.71395617	        -31.00489257	        -69.93301665	          1.09806307	          7.16728119	          3.49651249	         37.93879656	        -17.32309352	         18.79422984	          8.08037627	
          0.38322999	         -5.67018339	         -1.53547720	         29.58446759	          3.38615308	          1.01644792	         -0.02388746	         53.42771548	        -13.81761238	         -5.86272417	        -47.22579841	         22.29839866	         -5.79698055	          4.27775491	         -2.20385490	        -14.51932450	         -6.59770556	        -38.53921190	        -18.98399245	         -9.15316969	          6.70162932	        -12.08519923	          3.78382607	        -32.62455300	        -69.89780766	          2.93867296	          4.63754049	          1.72857125	         31.33759430	        -23.89311119	         16.83098072	          8.85906823	
          0.38796122	         -4.71578117	         -0.82248715	         29.19100398	          3.42923087	          1.01891098	         -0.02108562	         51.71010138	        -13.05409757	         -5.36356069	        -45.44850379	         23.34173603	         -4.84593921	          1.09898027	         -3.01861201	        -14.61783688	         -7.12117433	        -39.27689199	        -18.46765529	         -9.27426647	          6.79045026	        -13.45331851	          3.85581645	        -33.97587378	        -69.99381594	          4.27608280	         -2.88455740	          0.82837504	         25.10450765	        -29.62230186	         16.91949672	          7.00524442	
          0.39269246	         -3.82173122	         -0.30264166	         28.50452364	          3.47216388	          1.02083668	         -0.01796719	         50.06300079	        -11.99754990	         -4.89215192	        -43.56469151	         23.66635062	         -5.06643865	         -1.61105252	         -3.61249767	        -14.72083494	         -7.67591356	        -40.11101163	        -17.88587154	         -9.44162318	          6.84847236	        -14.78183616	          3.95639172	        -34.89569394	        -69.98642058	          4.96144514	        -10.47217151	          0.20229202	         19.14160705	        -34.32608170	         19.17803828	          3.39427823	
          0.39742369	         -3.07241355	         -0.09808286	         27.44402250	          3.51502754	          1.02203138	         -0.01455257	         48.61579020	        -10.57259550	         -4.45339884	        -41.57502931	         23.73605886	         -5.51785057	         -1.18328227	         -3.89908519	        -14.88429416	         -8.33666140	        -41.02428038	        -17.22521128	         -9.44945337	          6.90364557	        -15.92745252	          4.15932067	        -35.25212998	        -69.99747206	          4.87926929	        -13.19939727	          0.00392709	         12.66668891	        -37.96510069	         18.24352950	          0.56117703	
          0.40215493	         -2.44528478	         -0.19898522	         26.01632384	          3.55783189	          1.02263149	         -0.01098967	         47.29956034	         -8.82812248	         -4.10455417	        -39.46332912	         24.39281082	         -5.32129836	         -0.41847039	         -3.94159126	        -15.09002525	         -9.05755433	        -41.96815385	        -16.56008332	         -9.38468771	          6.94230348	        -16.91942266	          4.48875211	        -35.02205010	        -69.99117321	          3.99804757	         -8.05952204	          0.10427349	          5.46438910	        -40.64428291	         10.18971888	          0.00365660	
          0.40688616	         -1.92803122	         -0.55664290	         24.32306888	          3.60047677	          1.02283713	         -0.00757788	         46.03052777	         -6.90728569	         -3.97213382	        -37.21857729	         24.96983571	         -5.02948318	          0.64781216	         -3.75975400	        -15.28107142	         -9.67346112	        -42.92082931	        -15.86443388	         -9.32944492	          6.95210379	        -17.78025701	          4.93471034	        -34.21322971	        -69.74612496	          2.43396186	          2.73281965	          0.38444537	         -1.32953951	        -42.14277709	         -1.34021806	          0.32782426	
          0.41161740	         -1.50306817	         -1.11372345	         22.52270515	          3.64284352	          1.02288168	         -0.00467047	         44.70923215	         -4.97592467	         -4.19665779	        -34.82473629	         25.00646044	         -5.16416243	          2.62011716	         -3.34568665	        -15.41168791	         -9.98629432	        -43.87626240	        -15.17096961	         -9.30825080	          6.96227402	        -18.52297816	          5.51346098	        -32.87594190	        -68.76480731	          0.70635125	         13.46593234	          0.01914788	         -6.48690841	        -42.59855143	        -10.17034488	          0.23893925	
          0.41634863	         -1.28030231	         -1.76428570	         20.69249139	          3.68489849	          1.02269517	         -0.00246618	         43.41496249	         -3.20574820	         -4.78266357	        -32.34604227	         24.90948376	         -5.43634932	          4.04638919	         -2.60239458	        -15.34442213	         -9.90251203	        -44.83734114	        -14.50858057	         -9.27988281	          6.96472616	        -19.05044503	          6.13925843	        -31.07648281	        -67.43076643	         -0.91819631	         19.10407652	          0.34015540	         -9.78922665	        -42.32457813	        -13.10910064	          0.00318658	
          0.42107986	         -1.26830166	         -2.40486638	         18.86185464	          3.72668335	          1.02234889	         -0.00098500	         42.13165172	         -1.67425727	         -5.70878277	        -29.83020700	         24.86196701	         -5.59832887	          4.79288183	         -1.55711398	        -15.01873262	         -9.45444690	        -45.77941306	        -13.84808898	         -9.13892806	          6.95391378	        -19.38068779	          6.74653820	        -28.92390157	        -65.79988137	         -2.32889144	         18.57972538	          1.50740175	        -11.49706207	        -41.38250125	        -13.10200471	          0.31902444	
          0.42581110	         -1.40290600	         -2.98172641	         17.02620334	          3.76826156	          1.02199169	         -0.00013088	         40.78373650	         -0.35502431	         -6.90788400	        -27.29507002	         25.09846074	         -5.60909350	          2.60915557	         -0.30836434	        -14.46487704	         -8.76187781	        -46.67260370	        -13.13527534	         -8.87890217	          6.77627386	        -19.59238110	          7.31014275	        -26.46846637	        -63.74614057	         -3.35663790	         13.98505674	          2.97092910	        -11.54653235	        -39.75598712	        -13.12208378	          0.95969744	
          0.43054233	         -1.63730756	         -3.43147293	         15.16032343	          3.80965908	          1.02173506	          0.00026006	         39.33098393	          0.78883606	         -8.14645772	        -24.76237998	         25.27887227	         -5.73501525	         -1.61628992	          1.06352281	        -13.68685226	         -7.95461650	        -47.49904182	        -11.97727383	         -8.50550786	          2.05382999	        -19.74766464	          7.75176185	        -23.70591520	        -60.97879087	         -3.89298686	          8.79245401	          3.81606814	         -9.68876339	        -37.47458367	        -13.18955538	          1.03301313	
